<svg width="44" height="44" viewBox="0 0 44 44" fill="none" xmlns="http://www.w3.org/2000/svg">
<g clip-path="url(#clip0_0_44)">
<path fill-rule="evenodd" clip-rule="evenodd" d="M36.25 13.8572C36.25 14.5318 35.7031 15.0786 35.0286 15.0786L8.97143 15.0786C8.29685 15.0786 7.75 14.5318 7.75 13.8572C7.75 13.1826 8.29685 12.6358 8.97143 12.6358L35.0286 12.6358C35.7031 12.6358 36.25 13.1826 36.25 13.8572Z" fill="#0068bf"/>
<path fill-rule="evenodd" clip-rule="evenodd" d="M36.25 21.9998C36.25 22.6743 35.7031 23.2212 35.0286 23.2212L8.97143 23.2212C8.29685 23.2212 7.75 22.6743 7.75 21.9998C7.75 21.3252 8.29685 20.7783 8.97143 20.7783L35.0286 20.7783C35.7031 20.7783 36.25 21.3252 36.25 21.9998Z" fill="#0068bf"/>
<path fill-rule="evenodd" clip-rule="evenodd" d="M36.25 30.1428C36.25 30.8174 35.7031 31.3643 35.0286 31.3643L8.97143 31.3643C8.29685 31.3643 7.75 30.8174 7.75 30.1428C7.75 29.4683 8.29685 28.9214 8.97143 28.9214L35.0286 28.9214C35.7031 28.9214 36.25 29.4683 36.25 30.1428Z" fill="#0068bf"/>
</g>
<rect x="1" y="1" width="42" height="42" rx="5" stroke="#0068bf" stroke-width="2"/>
<defs>
<clipPath id="clip0_0_44">
<rect width="44" height="44" rx="6" fill="white"/>
</clipPath>
</defs>
</svg>
