<svg width="60" height="60" viewBox="0 0 60 60" fill="none" xmlns="http://www.w3.org/2000/svg">
<rect x="1.35714" y="1.35714" width="57.2857" height="57.2857" rx="4.64286" stroke="#F9FAFA" stroke-width="2.71429"/>
<path fill-rule="evenodd" clip-rule="evenodd" d="M44.25 21.8572C44.25 22.5318 43.7031 23.0786 43.0286 23.0786L16.9714 23.0786C16.2969 23.0786 15.75 22.5318 15.75 21.8572C15.75 21.1826 16.2969 20.6358 16.9714 20.6358L43.0286 20.6358C43.7031 20.6358 44.25 21.1826 44.25 21.8572Z" fill="#F2F6FA"/>
<path fill-rule="evenodd" clip-rule="evenodd" d="M44.25 30C44.25 30.6746 43.7031 31.2214 43.0286 31.2214L16.9714 31.2214C16.2969 31.2214 15.75 30.6746 15.75 30C15.75 29.3254 16.2969 28.7786 16.9714 28.7786L43.0286 28.7786C43.7031 28.7786 44.25 29.3254 44.25 30Z" fill="#F2F6FA"/>
<path fill-rule="evenodd" clip-rule="evenodd" d="M44.25 38.1428C44.25 38.8174 43.7031 39.3643 43.0286 39.3643L16.9714 39.3643C16.2969 39.3643 15.75 38.8174 15.75 38.1428C15.75 37.4683 16.2969 36.9214 16.9714 36.9214L43.0286 36.9214C43.7031 36.9214 44.25 37.4683 44.25 38.1428Z" fill="#F2F6FA"/>
</svg>
