<svg width="34" height="34" viewBox="0 0 34 34" fill="none" xmlns="http://www.w3.org/2000/svg">
<rect x="0.636364" y="0.636364" width="32.7273" height="32.7273" rx="3.18182" stroke="white" stroke-width="1.27273"/>
<path fill-rule="evenodd" clip-rule="evenodd" d="M26.0684 11.8183C26.0684 12.2476 25.7204 12.5956 25.2911 12.5956L8.70927 12.5956C8.27999 12.5956 7.932 12.2476 7.932 11.8183C7.932 11.389 8.27999 11.041 8.70927 11.041L25.2911 11.041C25.7204 11.041 26.0684 11.389 26.0684 11.8183Z" fill="white"/>
<path fill-rule="evenodd" clip-rule="evenodd" d="M26.0684 17.0001C26.0684 17.4293 25.7204 17.7773 25.2911 17.7773L8.70927 17.7773C8.27999 17.7773 7.932 17.4293 7.932 17.0001C7.932 16.5708 8.27999 16.2228 8.70927 16.2228L25.2911 16.2228C25.7204 16.2228 26.0684 16.5708 26.0684 17.0001Z" fill="white"/>
<path fill-rule="evenodd" clip-rule="evenodd" d="M26.0684 22.1818C26.0684 22.6111 25.7204 22.9591 25.2911 22.9591L8.70927 22.9591C8.27999 22.9591 7.932 22.6111 7.932 22.1818C7.932 21.7526 8.27999 21.4046 8.70927 21.4046L25.2911 21.4046C25.7204 21.4046 26.0684 21.7526 26.0684 22.1818Z" fill="white"/>
</svg>
