<svg width="40" height="40" viewBox="0 0 40 40" fill="none" xmlns="http://www.w3.org/2000/svg">
<path d="M13.3333 15H26.6667M13.3333 21.6666H23.3333M19.9967 31.0016L13.3333 35V30H10C8.67392 30 7.40215 29.4732 6.46447 28.5355C5.52678 27.5978 5 26.326 5 25V11.6666C5 10.3405 5.52678 9.06877 6.46447 8.13109C7.40215 7.19341 8.67392 6.66663 10 6.66663H30C31.3261 6.66663 32.5979 7.19341 33.5355 8.13109C34.4732 9.06877 35 10.3405 35 11.6666V20.8333M31.6667 26.6666V36.6666M31.6667 36.6666L36.6667 31.6666M31.6667 36.6666L26.6667 31.6666" stroke="white" stroke-width="2" stroke-linecap="round" stroke-linejoin="round"/>
</svg>
