<svg width="40" height="40" viewBox="0 0 40 40" fill="none" xmlns="http://www.w3.org/2000/svg">
<path d="M6.66663 10C6.66663 12.7617 12.6366 15 20 15C27.3633 15 33.3333 12.7617 33.3333 10C33.3333 7.23833 27.3633 5 20 5C12.6366 5 6.66663 7.23833 6.66663 10Z" stroke="white" stroke-width="2" stroke-linecap="round" stroke-linejoin="round"/>
<path d="M6.66663 10V20C6.66663 22.7617 12.6366 25 20 25C21.7916 25 23.5 24.8667 25.0616 24.6267M33.3333 20V10" stroke="white" stroke-width="2" stroke-linecap="round" stroke-linejoin="round"/>
<path d="M6.66663 20V30C6.66663 32.7617 12.6366 35 20 35C20.2766 35 20.5516 34.9967 20.825 34.99M26.6666 31.6667H36.6666M31.6666 26.6667V36.6667" stroke="white" stroke-width="2" stroke-linecap="round" stroke-linejoin="round"/>
</svg>
