<svg width="45" height="45" viewBox="0 0 45 45" fill="none" xmlns="http://www.w3.org/2000/svg">
<path d="M36.2812 18.825C35.0063 12.3562 29.325 7.5 22.5 7.5C17.0812 7.5 12.375 10.575 10.0312 15.075C4.3875 15.675 0 20.4563 0 26.25C0 32.4562 5.04375 37.5 11.25 37.5H35.625C40.8 37.5 45 33.3 45 28.125C45 23.175 41.1562 19.1625 36.2812 18.825ZM35.625 33.75H11.25C7.10625 33.75 3.75 30.3937 3.75 26.25C3.75 22.4062 6.61875 19.2 10.425 18.8062L12.4313 18.6L13.3688 16.8188C15.15 13.3875 18.6375 11.25 22.5 11.25C27.4125 11.25 31.65 14.7375 32.6062 19.5563L33.1688 22.3688L36.0375 22.575C38.9625 22.7625 41.25 25.2188 41.25 28.125C41.25 31.2188 38.7188 33.75 35.625 33.75ZM15 24.375H19.7812V30H25.2188V24.375H30L22.5 16.875L15 24.375Z" fill="#0086bf"/>
</svg>
