<svg width="20" height="20" viewBox="0 0 20 20" fill="none" xmlns="http://www.w3.org/2000/svg">
<path d="M13.3834 17.9549C13.6178 17.7205 13.7494 17.4026 13.7494 17.0712C13.7494 16.7397 13.6178 16.4218 13.3834 16.1874L7.19594 9.99994L13.3834 3.81244C13.6111 3.57669 13.7371 3.26093 13.7343 2.93319C13.7314 2.60544 13.6 2.29193 13.3682 2.06017C13.1365 1.82841 12.8229 1.69695 12.4952 1.6941C12.1674 1.69125 11.8517 1.81724 11.6159 2.04494L4.54469 9.11619C4.31036 9.3506 4.17871 9.66848 4.17871 9.99994C4.17871 10.3314 4.31036 10.6493 4.54469 10.8837L11.6159 17.9549C11.8504 18.1893 12.1682 18.3209 12.4997 18.3209C12.8311 18.3209 13.149 18.1893 13.3834 17.9549Z" fill="white"/>
</svg>
